<svg width="134" height="6" viewBox="0 0 134 6" fill="none" xmlns="http://www.w3.org/2000/svg">
<path d="M114.817 0.149985C114.969 0.294907 115.105 0.444839 115.225 0.598965C115.285 0.725338 115.325 0.854541 115.343 0.984966L114.859 1.25421C109.271 1.11462 103.632 1.10688 97.9954 1.1485C92.3587 1.19012 86.7306 1.23027 81.1011 1.43984C81.4005 1.44758 81.6999 1.45679 81.9993 1.46231C86.8107 1.55034 91.6227 1.63137 96.4334 1.7286C98.3651 1.76764 100.293 1.84609 102.223 1.90061C106.618 2.02547 111.017 2.13412 115.41 2.27298C118.899 2.38347 122.385 2.5238 125.871 2.66045C127.961 2.74259 130.049 2.84093 132.137 2.93669C132.586 2.95732 133.031 2.99673 133.516 3.03024C133.587 3.15427 133.696 3.27051 133.837 3.37389C134.105 3.51753 133.976 3.65639 133.914 3.79672C133.843 3.91949 133.757 4.03936 133.657 4.15546C133.286 4.14663 132.96 4.14404 132.638 4.13042C130.467 4.03613 128.297 3.94098 126.128 3.84497C125.843 3.81881 125.554 3.81435 125.267 3.83171C124.291 3.90775 123.301 3.91319 122.321 3.84791C117.551 3.72747 112.775 3.69211 107.999 3.67149C103.347 3.65197 98.6953 3.60556 94.0428 3.60887C88.569 3.61293 83.0951 3.65344 77.6213 3.68659C74.3286 3.70648 71.0352 3.73153 67.7432 3.77462C65.111 3.80888 62.4801 3.86596 59.8498 3.92674C55.4924 4.02717 51.1356 4.13398 46.7795 4.24717C43.7796 4.32452 40.779 4.40445 37.7844 4.50095C35.3216 4.58014 32.8601 4.68511 30.4019 4.77756C28.8839 4.83428 27.3646 4.87995 25.8486 4.94477C22.9798 5.06754 20.1128 5.1956 17.2475 5.32893C15.4091 5.41438 13.5641 5.50278 11.7323 5.61106C10.3869 5.66466 9.05207 5.78245 7.74232 5.96317C7.07261 6.06851 6.71542 5.94513 6.70688 5.62801C6.70688 5.53482 6.73645 5.44164 6.74039 5.34845C6.74039 5.27479 6.72791 5.20113 6.7174 5.09468C6.36745 5.10941 6.05491 5.12452 5.74238 5.13593C5.49667 5.14914 5.24991 5.15529 5.00308 5.15435C4.24014 5.13851 4.04384 5.05159 3.89611 4.68658C3.86854 4.61771 3.83832 4.54846 3.80352 4.46559C3.21689 4.45464 2.62994 4.48083 2.05377 4.54367C1.7314 4.57351 1.4136 4.61734 1.08925 4.63981C0.54364 4.67922 0.197638 4.57608 0.100465 4.33925C0.0521253 4.18766 0.0185802 4.03471 0 3.88106C0.485567 3.72773 1.02174 3.63148 1.57579 3.5982C3.65933 3.35393 5.76691 3.1794 7.8874 3.07555C11.3248 2.90956 14.7637 2.75106 18.2041 2.60005C20.7022 2.48832 23.2015 2.382 25.7022 2.28108C27.9562 2.18937 30.2122 2.10982 32.4649 2.017C35.5797 1.88882 38.6925 1.75291 41.8059 1.62069C43.9372 1.52983 46.0684 1.43886 48.1996 1.34776C52.1745 1.17686 56.1481 1.00044 60.1243 0.835797C61.7217 0.769499 63.3251 0.728983 64.9252 0.673735C66.8949 0.605964 68.8646 0.523093 70.8343 0.468213C74.1211 0.376501 77.4099 0.303205 80.698 0.218859C87.6892 0.040961 94.683 -0.00213032 101.686 7.96005e-05C104.403 7.96005e-05 107.119 0.0132144 109.835 0.0394879C111.467 0.0549573 113.108 0.110575 114.817 0.149985ZM31.05 3.18642C32.2167 3.24977 43.9661 2.9982 45.4768 2.90612C45.5359 2.90244 45.5852 2.86561 45.639 2.84388C45.6259 2.68955 45.4473 2.59526 45.1098 2.59747C44.5347 2.60115 43.9582 2.61257 43.3856 2.63725C41.3385 2.72527 39.2932 2.82141 37.2467 2.91275C35.1811 3.00483 33.1155 3.09605 31.05 3.18642Z" fill="#0A8080"/>
</svg>
